<svg width="104" height="104" viewBox="0 0 104 104" fill="none" xmlns="http://www.w3.org/2000/svg">
<g filter="url(#filter0_d_383_1147)">
<path d="M11.9284 59.6341C2.2442 54.7078 2.51746 40.7804 12.3875 36.2378L27.1294 29.4529C29.9038 28.176 32.14 25.9631 33.4459 23.2022L40.6113 8.05361C45.3212 -1.90371 59.5049 -1.85786 64.1503 8.12969L71.1253 23.1257C72.4313 25.9335 74.6966 28.1828 77.5135 29.4689L92.3052 36.2221C102.224 40.7504 102.497 54.742 92.7627 59.654L77.0549 67.5804C74.5207 68.8591 72.4747 70.9322 71.2294 73.483L64.046 88.1965C59.3138 97.8893 45.5167 97.9353 40.72 88.2742L33.3381 73.406C32.0954 70.9031 30.0792 68.8672 27.5884 67.6001L11.9284 59.6341Z" fill="#A7F9C8"/>
</g>
<defs>
<filter id="filter0_d_383_1147" x="0.822266" y="0.612259" width="103.084" height="102.881" filterUnits="userSpaceOnUse" color-interpolation-filters="sRGB">
<feFlood flood-opacity="0" result="BackgroundImageFix"/>
<feColorMatrix in="SourceAlpha" type="matrix" values="0 0 0 0 0 0 0 0 0 0 0 0 0 0 0 0 0 0 127 0" result="hardAlpha"/>
<feOffset dy="4"/>
<feGaussianBlur stdDeviation="2"/>
<feComposite in2="hardAlpha" operator="out"/>
<feColorMatrix type="matrix" values="0 0 0 0 0 0 0 0 0 0 0 0 0 0 0 0 0 0 0.25 0"/>
<feBlend mode="normal" in2="BackgroundImageFix" result="effect1_dropShadow_383_1147"/>
<feBlend mode="normal" in="SourceGraphic" in2="effect1_dropShadow_383_1147" result="shape"/>
</filter>
</defs>
</svg>
