<svg width="54" height="54" viewBox="0 0 54 54" fill="none" xmlns="http://www.w3.org/2000/svg">
<g filter="url(#filter0_d_383_1148)">
<path d="M7.81885 28.6573C3.44028 26.43 3.56384 20.1329 8.02641 18.079L15.3711 14.6987C16.6254 14.1214 17.6365 13.1209 18.227 11.8726L21.7958 4.32761C23.9253 -0.174437 30.3382 -0.153716 32.4386 4.362L35.9159 11.838C36.5063 13.1075 37.5306 14.1245 38.8042 14.706L46.1768 18.072C50.6612 20.1194 50.7848 26.4455 46.3836 28.6663L38.5968 32.5957C37.451 33.1738 36.526 34.1112 35.9629 35.2645L32.3914 42.5798C30.2518 46.9623 24.0137 46.983 21.845 42.6149L18.1782 35.2297C17.6164 34.098 16.7048 33.1775 15.5786 32.6046L7.81885 28.6573Z" fill="#65F59F"/>
</g>
<defs>
<filter id="filter0_d_383_1148" x="0.605469" y="0.963112" width="53.0078" height="52.9157" filterUnits="userSpaceOnUse" color-interpolation-filters="sRGB">
<feFlood flood-opacity="0" result="BackgroundImageFix"/>
<feColorMatrix in="SourceAlpha" type="matrix" values="0 0 0 0 0 0 0 0 0 0 0 0 0 0 0 0 0 0 127 0" result="hardAlpha"/>
<feOffset dy="4"/>
<feGaussianBlur stdDeviation="2"/>
<feComposite in2="hardAlpha" operator="out"/>
<feColorMatrix type="matrix" values="0 0 0 0 0 0 0 0 0 0 0 0 0 0 0 0 0 0 0.25 0"/>
<feBlend mode="normal" in2="BackgroundImageFix" result="effect1_dropShadow_383_1148"/>
<feBlend mode="normal" in="SourceGraphic" in2="effect1_dropShadow_383_1148" result="shape"/>
</filter>
</defs>
</svg>
